<svg id="_0527_online_campaign" xmlns="http://www.w3.org/2000/svg" xmlns:xlink="http://www.w3.org/1999/xlink" viewBox="0 0 500 500" data-imageid="marketing-campaign-1-54" imageName="Marketing Campaign 1" class="illustrations_image" style="width: 154px;"><defs><style>.cls-1_marketing-campaign-1-54{opacity:.89;}.cls-1_marketing-campaign-1-54,.cls-2_marketing-campaign-1-54,.cls-3_marketing-campaign-1-54,.cls-4_marketing-campaign-1-54,.cls-5_marketing-campaign-1-54,.cls-6_marketing-campaign-1-54,.cls-7_marketing-campaign-1-54,.cls-8_marketing-campaign-1-54,.cls-9_marketing-campaign-1-54,.cls-10_marketing-campaign-1-54,.cls-11_marketing-campaign-1-54,.cls-12_marketing-campaign-1-54,.cls-13_marketing-campaign-1-54,.cls-14_marketing-campaign-1-54,.cls-15_marketing-campaign-1-54,.cls-16_marketing-campaign-1-54,.cls-17_marketing-campaign-1-54,.cls-18_marketing-campaign-1-54,.cls-19_marketing-campaign-1-54,.cls-20_marketing-campaign-1-54,.cls-21_marketing-campaign-1-54,.cls-22_marketing-campaign-1-54,.cls-23_marketing-campaign-1-54,.cls-24_marketing-campaign-1-54,.cls-25_marketing-campaign-1-54,.cls-26_marketing-campaign-1-54{stroke-width:0px;}.cls-1_marketing-campaign-1-54,.cls-3_marketing-campaign-1-54{isolation:isolate;}.cls-1_marketing-campaign-1-54,.cls-25_marketing-campaign-1-54{fill:#fff;}.cls-2_marketing-campaign-1-54{fill:url(#linear-gradient);}.cls-3_marketing-campaign-1-54{opacity:.18;}.cls-3_marketing-campaign-1-54,.cls-26_marketing-campaign-1-54{fill:#68e1fd;}.cls-4_marketing-campaign-1-54{fill:url(#linear-gradient-11-marketing-campaign-1-54);}.cls-5_marketing-campaign-1-54{fill:url(#linear-gradient-12-marketing-campaign-1-54);}.cls-6_marketing-campaign-1-54{fill:url(#linear-gradient-13-marketing-campaign-1-54);}.cls-7_marketing-campaign-1-54{fill:url(#linear-gradient-10-marketing-campaign-1-54);}.cls-8_marketing-campaign-1-54{fill:url(#linear-gradient-17-marketing-campaign-1-54);}.cls-9_marketing-campaign-1-54{fill:url(#linear-gradient-16-marketing-campaign-1-54);}.cls-10_marketing-campaign-1-54{fill:url(#linear-gradient-19-marketing-campaign-1-54);}.cls-11_marketing-campaign-1-54{fill:url(#linear-gradient-15-marketing-campaign-1-54);}.cls-12_marketing-campaign-1-54{fill:url(#linear-gradient-18-marketing-campaign-1-54);}.cls-13_marketing-campaign-1-54{fill:url(#linear-gradient-14-marketing-campaign-1-54);}.cls-14_marketing-campaign-1-54{fill:url(#linear-gradient-4-marketing-campaign-1-54);}.cls-15_marketing-campaign-1-54{fill:url(#linear-gradient-2-marketing-campaign-1-54);}.cls-16_marketing-campaign-1-54{fill:url(#linear-gradient-3-marketing-campaign-1-54);}.cls-17_marketing-campaign-1-54{fill:url(#linear-gradient-8-marketing-campaign-1-54);}.cls-18_marketing-campaign-1-54{fill:url(#linear-gradient-9-marketing-campaign-1-54);}.cls-19_marketing-campaign-1-54{fill:url(#linear-gradient-7-marketing-campaign-1-54);}.cls-20_marketing-campaign-1-54{fill:url(#linear-gradient-5-marketing-campaign-1-54);}.cls-21_marketing-campaign-1-54{fill:url(#linear-gradient-6-marketing-campaign-1-54);}.cls-22_marketing-campaign-1-54{fill:#f9c6d6;}.cls-23_marketing-campaign-1-54{fill:#231f20;}.cls-24_marketing-campaign-1-54{fill:#c14834;}</style><linearGradient id="linear-gradient-marketing-campaign-1-54" x1="-20.24" y1="-16.91" x2="-277.61" y2="119.73" gradientTransform="translate(380.44 324.13)" gradientUnits="userSpaceOnUse"><stop offset="0" stop-color="#231f20"/><stop offset=".08" stop-color="#231f20" stop-opacity=".69"/><stop offset=".21" stop-color="#231f20" stop-opacity=".32"/><stop offset="1" stop-color="#231f20" stop-opacity="0"/></linearGradient><linearGradient id="linear-gradient-2-marketing-campaign-1-54" x1="-9.52" y1="3.28" x2="-266.89" y2="139.92" xlink:href="#linear-gradient-marketing-campaign-1-54"/><linearGradient id="linear-gradient-3-marketing-campaign-1-54" x1="-8.41" y1="5.36" x2="-265.79" y2="141.99" xlink:href="#linear-gradient-marketing-campaign-1-54"/><linearGradient id="linear-gradient-4-marketing-campaign-1-54" x1="-121.46" y1="-28.53" x2="-84.39" y2="71.75" xlink:href="#linear-gradient-marketing-campaign-1-54"/><linearGradient id="linear-gradient-5-marketing-campaign-1-54" x1="-151.06" y1="-11.34" x2="-52.91" y2="133.41" xlink:href="#linear-gradient-marketing-campaign-1-54"/><linearGradient id="linear-gradient-6-marketing-campaign-1-54" x1="-140.05" y1="7.09" x2="-105.7" y2="106.38" xlink:href="#linear-gradient-marketing-campaign-1-54"/><linearGradient id="linear-gradient-7-marketing-campaign-1-54" x1="92.56" y1="-144.34" x2="-460.32" y2="53.71" gradientTransform="translate(380.44 324.13)" xlink:href="#linear-gradient-marketing-campaign-1-54"/><linearGradient id="linear-gradient-8-marketing-campaign-1-54" x1="-126.92" y1="-295.95" x2="-106.84" y2="120.89" xlink:href="#linear-gradient-marketing-campaign-1-54"/><linearGradient id="linear-gradient-9-marketing-campaign-1-54" x1="-157.32" y1="-277.29" x2="-21.92" y2="146.25" xlink:href="#linear-gradient-marketing-campaign-1-54"/><linearGradient id="linear-gradient-10-marketing-campaign-1-54" x1="-148.76" y1="-203.27" x2="-51.94" y2="133.28" gradientTransform="translate(380.44 324.13)" gradientUnits="userSpaceOnUse"><stop offset="0" stop-color="#000"/><stop offset=".08" stop-color="#000" stop-opacity=".69"/><stop offset=".21" stop-color="#000" stop-opacity=".32"/><stop offset="1" stop-color="#000" stop-opacity="0"/></linearGradient><linearGradient id="linear-gradient-11-marketing-campaign-1-54" x1="-224.83" y1="-175.29" x2="45.08" y2="222.78" gradientTransform="translate(380.44 324.13)" xlink:href="#linear-gradient-marketing-campaign-1-54"/><linearGradient id="linear-gradient-12-marketing-campaign-1-54" x1="-217.03" y1="-142.38" x2="-171.71" y2="-100.48" gradientTransform="translate(380.44 324.13)" gradientUnits="userSpaceOnUse"><stop offset="0" stop-color="#231f20"/><stop offset=".13" stop-color="#231f20" stop-opacity=".69"/><stop offset=".25" stop-color="#231f20" stop-opacity=".32"/><stop offset="1" stop-color="#231f20" stop-opacity="0"/></linearGradient><linearGradient id="linear-gradient-13-marketing-campaign-1-54" x1="-199.99" y1="-137" x2="-184.15" y2="-129.13" xlink:href="#linear-gradient-12-marketing-campaign-1-54"/><linearGradient id="linear-gradient-14-marketing-campaign-1-54" x1="-212.93" y1="-116.11" x2="-203.65" y2="-137" xlink:href="#linear-gradient-12-marketing-campaign-1-54"/><linearGradient id="linear-gradient-15-marketing-campaign-1-54" x1="-178.01" y1="-214.23" x2="-167.97" y2="-192.3" xlink:href="#linear-gradient-12-marketing-campaign-1-54"/><linearGradient id="linear-gradient-16-marketing-campaign-1-54" x1="312.18" y1="-218.91" x2="375.82" y2="-191.8" gradientTransform="translate(-17.83 446.25) rotate(-94.57) scale(1 -1)" xlink:href="#linear-gradient-marketing-campaign-1-54"/><linearGradient id="linear-gradient-17-marketing-campaign-1-54" x1="-389.41" y1="317.5" x2="-322.08" y2="471.69" gradientTransform="translate(495.87 -15.57) rotate(1.72)" xlink:href="#linear-gradient-marketing-campaign-1-54"/><linearGradient id="linear-gradient-18-marketing-campaign-1-54" x1="-1867.81" y1="1480.41" x2="-1979.98" y2="1575.98" gradientTransform="translate(2524.71 52.81) rotate(32.74)" xlink:href="#linear-gradient-12-marketing-campaign-1-54"/><linearGradient id="linear-gradient-19-marketing-campaign-1-54" x1="-380.94" y1="1560.97" x2="-212" y2="1404.86" gradientTransform="translate(1180.99 -798.33) rotate(32.74)" xlink:href="#linear-gradient-12-marketing-campaign-1-54"/></defs><g id="background_marketing-campaign-1-54"><path class="cls-3_marketing-campaign-1-54 targetColor" d="M147.18,96.41c-8.54,8.82-15.62,18.93-23.15,28.63-28.2,36.35-63.04,67.66-87.74,106.51-24.7,38.85-38.1,89.46-18.36,130.98,13.31,28.06,39.87,47.95,68.35,60.31,24.36,10.75,50.7,16.25,77.32,16.13,55.65-.66,107.25-27.83,161.68-39.52,24.13-5.19,48.93-7.34,72.78-13.62,16.92-4.45,33.47-11.06,47.53-21.45,38.88-28.67,52.63-83.45,41.16-130.38-11.48-46.93-44.43-86.27-83.03-115.34-65.47-49.31-189.67-91.35-256.55-22.27Z" style="fill: rgb(211, 220, 222);"/></g><g id="monitor_marketing-campaign-1-54"><polygon class="cls-26_marketing-campaign-1-54 targetColor" points="251.82 320.82 269.24 361.77 323.37 370.71 305.95 322.71 251.82 320.82" style="fill: rgb(211, 220, 222);"/><polygon class="cls-2_marketing-campaign-1-54" points="251.82 320.82 269.24 361.77 323.37 370.71 305.95 322.71 251.82 320.82"/><polygon class="cls-15_marketing-campaign-1-54" points="269.24 361.77 234.4 370.71 305.72 391.2 323.37 370.71 269.24 361.77"/><polygon class="cls-26_marketing-campaign-1-54 targetColor" points="269.24 361.77 234.4 370.71 297.24 401.02 323.37 370.71 269.24 361.77" style="fill: rgb(211, 220, 222);"/><polygon class="cls-16_marketing-campaign-1-54" points="269.24 361.77 234.4 370.71 297.24 401.02 323.37 370.71 269.24 361.77"/><polygon class="cls-26_marketing-campaign-1-54 targetColor" points="241.58 320.82 259 361.77 313.14 370.71 295.72 322.71 241.58 320.82" style="fill: rgb(211, 220, 222);"/><polygon class="cls-14_marketing-campaign-1-54" points="254.65 351.55 302.39 341.08 295.72 322.71 241.58 320.82 254.65 351.55"/><polygon class="cls-26_marketing-campaign-1-54 targetColor" points="259 361.77 224.17 370.71 295.48 391.2 313.14 370.71 259 361.77" style="fill: rgb(211, 220, 222);"/><polygon class="cls-20_marketing-campaign-1-54" points="259 361.77 224.17 370.71 295.48 391.2 313.14 370.71 259 361.77"/><polygon class="cls-26_marketing-campaign-1-54 targetColor" points="295.48 391.2 297.24 401.02 222.4 378.49 224.17 370.71 295.48 391.2" style="fill: rgb(211, 220, 222);"/><polygon class="cls-21_marketing-campaign-1-54" points="295.48 391.2 297.24 401.02 222.4 378.49 224.17 370.71 295.48 391.2"/><path class="cls-26_marketing-campaign-1-54 targetColor" d="M382.09,149.63v183.88c0,4.31-3.49,7.8-7.8,7.8,0,0-.02,0-.03,0h-.84l-206.11-23.01c-3.97-.42-6.99-3.76-6.99-7.76v-139.91c0-3.99,3.02-7.34,6.99-7.76l206.11-20.97c4.28-.47,8.14,2.61,8.63,6.89.03.28.04.56.04.84Z" style="fill: rgb(211, 220, 222);"/><path class="cls-19_marketing-campaign-1-54" d="M382.09,149.63v183.88c0,4.31-3.49,7.8-7.8,7.8,0,0-.02,0-.03,0h-.84l-206.11-23.01c-3.97-.42-6.99-3.76-6.99-7.76v-139.91c0-3.99,3.02-7.34,6.99-7.76l206.11-20.97c4.28-.47,8.14,2.61,8.63,6.89.03.28.04.56.04.84Z"/><path class="cls-26_marketing-campaign-1-54 targetColor" d="M376.92,149.63v183.88c0,4.31-3.49,7.8-7.8,7.8,0,0-.02,0-.03,0h-.84l-206.11-23.01c-3.97-.42-6.99-3.76-6.99-7.76v-139.91c0-3.99,3.02-7.34,6.99-7.76l206.19-21c4.29-.43,8.11,2.7,8.54,6.98,0,0,0,0,0,0,.03.26.04.51.04.77Z" style="fill: rgb(211, 220, 222);"/><polygon class="cls-17_marketing-campaign-1-54" points="165.48 298.69 165.48 170.6 360.69 154.75 360.69 309.34 165.48 298.69"/><polygon class="cls-18_marketing-campaign-1-54" points="334.95 243.71 217.54 243.71 217.54 187.56 334.95 182.33 334.95 243.71"/><polygon class="cls-7_marketing-campaign-1-54" points="334.95 308.24 217.54 302 217.54 249.55 334.95 249.55 334.95 308.24"/><path class="cls-4_marketing-campaign-1-54" d="M376.92,310.46v23.05c0,4.31-3.49,7.8-7.8,7.8,0,0-.02,0-.03,0h-.84l-206.11-23.01c-3.97-.42-6.99-3.76-6.99-7.76v-11.9l221.77,11.81Z"/></g><g id="screen_marketing-campaign-1-54"><path class="cls-25_marketing-campaign-1-54" d="M198.76,265.1l-59.21-2.8c-3.43-.16-6.13-3-6.12-6.43v-24.21c0-3.52,2.83-6.38,6.35-6.42l59.21-.66c3.55-.04,6.46,2.81,6.5,6.36h0v27.78c-.02,3.54-2.91,6.4-6.46,6.38,0,0-.02,0-.03,0h-.24Z"/><path class="cls-1_marketing-campaign-1-54" d="M400.49,253.65h-114.38c-4.83,0-8.74-3.92-8.75-8.75v-42.14c0-4.69,3.7-8.54,8.39-8.74l114.36-5.3c4.81-.24,8.91,3.47,9.14,8.28,0,0,0,.01,0,.02v47.87c0,4.83-3.92,8.75-8.75,8.75h0Z"/><path class="cls-25_marketing-campaign-1-54" d="M328.53,177.52l-81.83,4.1c-3.24.21-6.04-2.25-6.25-5.49,0-.14,0-.27,0-.41v-29.88c.05-3.37,2.62-6.17,5.98-6.5l81.87-7.86c3.25-.36,6.17,1.99,6.52,5.24.02.21.03.42.04.64v33.65c-.04,3.51-2.83,6.37-6.33,6.51Z"/></g><g id="character_marketing-campaign-1-54"><path class="cls-5_marketing-campaign-1-54" d="M190.49,193.43c0,1.79-2.88,3.48-4.29,3.9-.59.13-1.17.31-1.72.55-.55.28-.9.85-.89,1.47.07.52.49.94.6,1.4.07.47.02.95-.15,1.4-.55,1.72-2.68,2.8-3.2,4.54-2.96-.31-4.29,0-7.23-.55l-2.39-1.58,3.69-6.91c.48-.97,1.06-1.89,1.75-2.73.79-.85,1.71-1.58,2.71-2.17,2.56-1.66,5.23-3.15,8-4.46-.42.17,3.13,4.67,3.13,5.13Z"/><path class="cls-22_marketing-campaign-1-54" d="M197.44,120.08l-.29.11c-1.61.5-3.26.91-4.92,1.22l-3.79.89c-1.13.45-2.34.65-3.55.59.48-1.14,1.32-2.08,2.4-2.67.81-.39,1.75-.52,2.54-.94,1.64-.92,2.41-2.88,1.82-4.67-.18-.52-.5-.97-.92-1.31-1.31-.74-2.96-.52-4.03.55-1.01,1.06-1.94,2.18-2.8,3.37-1.66,1.49-3.4,2.89-5.21,4.19-1.68,1.5-3.01,3.77-2.36,5.93s3.4,1.9,5.31,1.9c2.4-.03,4.79-.33,7.13-.88,2.31-.5,4.59-1.15,6.88-1.75,1.1-.35,2.22-.62,3.36-.81.75.03,1.5-.07,2.22-.28.64-.33,1.19-.81,1.61-1.4.78-.89,1.27-2.01,1.4-3.19.08-1.65-1.03-3.26-2.8-2.8-1.37.56-2.71,1.21-4,1.94Z"/><path class="cls-22_marketing-campaign-1-54" d="M188.77,185.31c.46.94.46,2.04,0,2.98-.28.35-.65.62-1.08.77-1.01.49-2.2.36-3.09-.32-.45-.51-.77-1.12-.92-1.78-.77-2.41-1.33-4.88-1.66-7.38-.06-.22-.06-.46,0-.69.13-.24.33-.44.59-.55,1.3-.71,3.36-1.27,4.1.29.84,2.17,1.53,4.4,2.07,6.67Z"/><path class="cls-26_marketing-campaign-1-54 targetColor" d="M184.82,186.46c-.28-.04-.56-.01-.82.08-.18.1-.34.24-.46.41l-2.8,3.24c-.55.63-1.13,1.5-.74,2.22.28.42.73.69,1.23.74,1.37.14,2.75-.12,3.97-.75.88-.39,1.75-.81,2.59-1.27.63-.28,1.19-.72,1.61-1.27.64-1.01.84-3.43-.31-4.19-.59-.38-1.1-.11-1.65.15-.81.42-1.7.64-2.61.64Z" style="fill: rgb(211, 220, 222);"/><path class="cls-22_marketing-campaign-1-54" d="M173.02,196.36c-.04.18-.04.37,0,.55.09.18.24.32.42.42.54.38,1.17.59,1.83.62.66.03,1.3-.26,1.72-.78.31-.48.49-1.04.53-1.61.24-1.24.36-2.5.36-3.76,0-.18-.05-.35-.17-.49-.09-.07-.21-.11-.32-.13-1.03-.22-3.06-.77-3.58.5-.52,1.51-.78,3.09-.8,4.68Z"/><path class="cls-26_marketing-campaign-1-54 targetColor" d="M168.68,196.23c-.88.04-1.74.21-2.57.49-.84.31-1.52.94-1.89,1.76-.14.41-.14.85,0,1.26.28.62.78,1.12,1.4,1.4,2.93,1.58,6.24,2.3,9.56,2.08.85.03,1.68-.28,2.31-.85.46-.7.68-1.53.62-2.36l.11-3.93c-.75.04-1.47.25-2.12.62-1.22.42-1.69-.59-2.71-.82-1.58-.11-3.16.01-4.7.36Z" style="fill: rgb(211, 220, 222);"/><path class="cls-6_marketing-campaign-1-54" d="M184.82,186.46c-.28-.04-.56-.01-.82.08-.18.1-.34.24-.46.41l-2.8,3.24c-.55.63-1.13,1.5-.74,2.22.28.42.73.69,1.23.74,1.37.14,2.75-.12,3.97-.75.88-.39,1.75-.81,2.59-1.27.63-.28,1.19-.72,1.61-1.27.64-1.01.84-3.43-.31-4.19-.59-.38-1.1-.11-1.65.15-.81.42-1.7.64-2.61.64Z"/><path class="cls-13_marketing-campaign-1-54" d="M168.68,196.23c-.88.04-1.74.21-2.57.49-.84.31-1.52.94-1.89,1.76-.14.41-.14.85,0,1.26.28.62.78,1.12,1.4,1.4,2.93,1.58,6.24,2.3,9.56,2.08.85.03,1.68-.28,2.31-.85.46-.7.68-1.53.62-2.36l.11-3.93c-.75.04-1.47.25-2.12.62-1.22.42-1.69-.59-2.71-.82-1.58-.11-3.16.01-4.7.36Z"/><path class="cls-23_marketing-campaign-1-54" d="M179.18,152.84c-1.92.2-3.32,1.91-3.12,3.83,0,0,0,0,0,0,0,.15,0,.29.08.45.02,7.94,1.49,15.8,4.36,23.21.13.56.48,1.03.98,1.31.42.15.89.15,1.31,0,1.72-.48,3.41-1.05,5.07-1.71l-2.25-15.08c-.1-.42-.08-.86.07-1.27.17-.28.4-.52.67-.7,2.56-1.89,5.26-3.57,8.08-5.03,2.25-1.16,4.82-2.49,5.44-4.96.24-.83.08-1.73-.43-2.43-.36-.35-.78-.63-1.24-.82-1.53-.95-3.29-1.48-5.09-1.54-1.4.15-1.9.95-3.05,1.55-3.2,1.57-7.44,2.21-10.89,3.19Z"/><path class="cls-25_marketing-campaign-1-54" d="M191.84,136.33c-.03-.15-.1-.29-.2-.41-.14-.1-.31-.14-.48-.13-5.85-.36-11.72.26-17.36,1.85.49,1.53,1.16,2.99,2.01,4.35,2.26,3.97,4.53,7.95,6.84,11.91.59,2,2.69,3.14,4.69,2.55,0,0,0,0,0,0l.32-.11,8.71-1.76c1.4-.28-1.4-7.48-1.9-8.81-1.09-3.08-1.82-6.28-2.64-9.44Z"/><path class="cls-26_marketing-campaign-1-54 targetColor" d="M203.49,152.54c-1.39-.54-2.75-1.18-4.05-1.92-4.95-2.8-.89-4.19.75-7.48,1.17-2.38.7-5.21.08-7.79-1.08-4.52-2.52-9.2-1.4-13.71.13-.73.42-1.43.84-2.04.3-.38.65-.72,1.03-1.02,1.04-.92,2.25-1.63,3.55-2.1,2.57-.69,5.3-.34,7.62.96,9.58,4.88,9.52,20.45,8.61,29.61-.03,2.14-.66,4.22-1.82,6.01-1.89,2.49-3.65,1.59-6.04,1.17-3.23-.55-6.11-.5-9.18-1.71Z" style="fill: rgb(211, 220, 222);"/><path class="cls-22_marketing-campaign-1-54" d="M209.07,122.96c-.82,1.02-2.02,1.65-3.33,1.75-.21.03-.41-.02-.59-.14-.19-.18-.29-.44-.29-.7,0-.52-.13-1.19-.18-1.85s-.17-1.48-.24-2.06c-.14-1.53-.71-2.98-1.65-4.19-.19-.26-.41-.5-.66-.71-1.59-1.4,4.91-.87,5.76-2.8.99,1.27.91,3.08,1.4,4.64.29.76.53,1.54.73,2.33.23,1.32-.12,2.67-.95,3.72Z"/><path class="cls-11_marketing-campaign-1-54" d="M204.77,122.32l-.08-.29c-.08-.74-.17-1.48-.24-2.06-.14-1.53-.71-2.98-1.65-4.19v-.15s5.14-3.38,5.7.57-3.73,6.12-3.73,6.12Z"/><path class="cls-22_marketing-campaign-1-54" d="M199.36,113.47c-.09.82.06,1.65.43,2.39.21.31.47.57.77.8,2.22,1.45,5.11,1.3,7.17-.36,2-1.72,3.16-4.21,3.19-6.85.16-1.36-.22-2.72-1.06-3.8-1.02-.99-2.48-1.4-3.87-1.08-1.87.43-3.58,1.4-4.91,2.8-1.3,1.45-1.62,4.25-1.72,6.11Z"/><path class="cls-23_marketing-campaign-1-54" d="M180.79,163.36c-1.06,1.37-1.9,2.9-2.47,4.53-3.24,7.95-5.35,16.32-6.26,24.86,2.65.34,5.32.34,7.97,0,.22-6.04,1.16-12.04,2.8-17.87.27-1.24.74-2.43,1.4-3.52,1.32-1.63,3.03-2.89,4.98-3.68,4.28-2.13,8.75-3.83,13.36-5.07,1.94-.55,3.9-1.03,5.82-1.69,1.64-.5,3.17-1.29,4.53-2.33,2.39-2,4.19-6.37,1.03-8.53-1.52-.84-3.23-1.29-4.96-1.31l-5.34-.5c-1.01-.22-2.06.08-2.8.8-3.97,3.06-8.04,5.79-12.2,8.57-2.63,1.73-5.77,3.33-7.84,5.76Z"/><path class="cls-22_marketing-campaign-1-54" d="M217.91,126.99c-.02.29.02.59.11.87.26,4.27.23,8.55-.11,12.82-.1,2.63-.45,7.66-3.2,9-5.17,2.53-15.11,1.55-15.11,1.55-1.15-.18-2.33-.14-3.47.14-.63.2-1.19.53-1.8.77-2.25.64-4.64.64-6.89,0-.4-.05-.79-.18-1.13-.39-.83-.76-.91-2.04-.18-2.89.75-.8,1.72-1.33,2.8-1.54,2.89-.97,5.99-1.09,8.95-.35.39.11.77.24,1.16.32.46.07.93.1,1.4.08h3.51c4.04,0,7.84,0,8.39-4.75.22-1.78.27-3.57.14-5.35-.24-3.23-1.08-6.42-.89-9.65,0-1.02.25-2.03.73-2.94.48-.91,1.4-1.5,2.42-1.55,1.07.08,2.03.72,2.5,1.69.35.68.59,1.41.7,2.17Z"/><path class="cls-24_marketing-campaign-1-54" d="M207.06,111.32c.19.98.27,1.98.22,2.98.69-.62.64-2.14,1.55-2.1.55,0,.8.78.55,1.27-.32.48-.83.81-1.4.89-.15,2.1,1.51,3.52,2.88,4.8,1.51,1.48,2.57,3.35,3.05,5.41.55,2.63.74,5.33.59,8.01.74-.59,1.79-.28,2.73-.18,2.88.13,5.44-1.82,6.08-4.63.54-2.79-.72-5.62-3.16-7.09-.8-.32-1.5-.83-2.06-1.48-.62-.98-.25-2.28-.21-3.45-.01-2.64-1.81-4.94-4.36-5.59.5-.92.82-1.92.95-2.96,0-1.42-.59-2.77-1.62-3.73-1.03-.94-2.21-1.68-3.5-2.21-1.15-.67-2.51-.9-3.82-.66-1.46.62-2.54,1.88-2.94,3.41-.74-.34-1.61-.16-2.15.43-.53.6-.8,1.39-.74,2.19.02.52.13,1.04.32,1.52.49-.59,1.08-1.16,1.66-.74s.95,1.29,1.48,1.76c.59.49,1.23.92,1.92,1.27.68.22,1.34.52,1.97.87Z"/><path class="cls-26_marketing-campaign-1-54 targetColor" d="M194.25,109.78l-.49,2.71c-.07.74-.66,1.33-1.4,1.4-2.64-.46-9.11-1.4-13.73-.17-2.52.64-4.98,1.48-7.37,2.52-.95.42-1.89-.64-1.73-1.93l1.68-14.5c.15-1.27,1.26-1.9,2.07-1.16,3.33,3.01,11.04,9.02,19.67,8.99.85,0,1.5,1.03,1.3,2.14Z" style="fill: rgb(211, 220, 222);"/><ellipse class="cls-26_marketing-campaign-1-54 targetColor" cx="171.18" cy="107.14" rx="9.11" ry="4.35" transform="translate(50.88 269.35) rotate(-85.48)" style="fill: rgb(211, 220, 222);"/><ellipse class="cls-9_marketing-campaign-1-54" cx="171.18" cy="107.14" rx="9.11" ry="4.35" transform="translate(50.88 269.35) rotate(-85.48)"/><rect class="cls-26_marketing-campaign-1-54 targetColor" x="185.43" y="118.93" width="3.94" height="3.94" rx="1.22" ry="1.22" transform="translate(13.53 260.57) rotate(-71.6)" style="fill: rgb(211, 220, 222);"/></g><g id="plant_marketing-campaign-1-54"><polygon class="cls-26_marketing-campaign-1-54 targetColor" points="144.55 336.77 94.18 335.15 100.43 371.08 136.12 372.24 144.55 336.77" style="fill: rgb(211, 220, 222);"/><polygon class="cls-8_marketing-campaign-1-54" points="144.55 336.77 94.18 335.15 100.43 371.08 136.12 372.24 144.55 336.77"/><path class="cls-26_marketing-campaign-1-54 targetColor" d="M89.97,248.43c-1.25,2.52-1.86,5.31-1.79,8.12-.63,12.74-.53,25.72,3.29,37.87,5.59,17.87,18.62,32.28,31.29,46.13-.95-1.52,1.86-9.6,2.24-11.53.74-3.77,1.58-7.54,2.36-11.3,1.26-5.96,0-12.22-1.48-18.08-3.23-13.28-9.57-25.6-18.5-35.96-5.05-5.89-10.91-11.03-17.41-15.27Z" style="fill: rgb(211, 220, 222);"/><path class="cls-12_marketing-campaign-1-54" d="M89.97,248.43c-1.25,2.52-1.86,5.31-1.79,8.12-.63,12.74-.53,25.72,3.29,37.87,5.59,17.87,18.62,32.28,31.29,46.13-.95-1.52,1.86-9.6,2.24-11.53.74-3.77,1.58-7.54,2.36-11.3,1.26-5.96,0-12.22-1.48-18.08-3.23-13.28-9.57-25.6-18.5-35.96-5.05-5.89-10.91-11.03-17.41-15.27Z"/><path class="cls-26_marketing-campaign-1-54 targetColor" d="M146.39,291.52c4.28-9.51,8.6-19.14,10.21-29.44,1.61-10.3.18-21.49-6.12-29.79-8.14,12.33-16.28,24.66-24.44,36.98-4.7,7.12-9.48,14.39-11.79,22.61-4.04,14.41-.45,36.59,9.16,48.27,5.48-4.68,8.04-15.38,11-21.99l11.98-26.63Z" style="fill: rgb(211, 220, 222);"/><path class="cls-10_marketing-campaign-1-54" d="M146.39,291.52c4.28-9.51,8.6-19.14,10.21-29.44,1.61-10.3.18-21.49-6.12-29.79-8.14,12.33-16.28,24.66-24.44,36.98-4.7,7.12-9.48,14.39-11.79,22.61-4.04,14.41-.45,36.59,9.16,48.27,5.48-4.68,8.04-15.38,11-21.99l11.98-26.63Z"/><path class="cls-26_marketing-campaign-1-54 targetColor" d="M92.78,322.78l54.02,1.75c4.5.14,8.03,3.89,7.91,8.39h0c-.15,4.49-3.9,8.02-8.39,7.9l-54.07-1.62c-4.49-.15-8.02-3.89-7.91-8.39h0c.09-4.52,3.83-8.12,8.35-8.03.03,0,.06,0,.09,0Z" style="fill: rgb(211, 220, 222);"/></g></svg>