<svg version="1.1" id="Layer_1" xmlns="http://www.w3.org/2000/svg" xmlns:xlink="http://www.w3.org/1999/xlink" x="0px" y="0px" viewBox="0 0 500 500" style="width: 154px;" xml:space="preserve" data-imageid="team-presentation-7-77" imageName="Team Presentation 7" class="illustrations_image">
<style type="text/css">
	.st0_team-presentation-7-77{fill:#16A79E;}
	.st1_team-presentation-7-77{opacity:0.63;fill:url(#SVGID_1_);enable-background:new    ;}
	.st2_team-presentation-7-77{opacity:0.63;fill:url(#SVGID_00000034054952777409910320000010993435151039281593_);enable-background:new    ;}
	.st3_team-presentation-7-77{opacity:0.63;fill:url(#SVGID_00000078748865678873854800000016117384820106255011_);enable-background:new    ;}
	.st4_team-presentation-7-77{opacity:0.63;fill:url(#SVGID_00000040559641619980021770000015881784033482611086_);enable-background:new    ;}
	.st5_team-presentation-7-77{opacity:0.63;fill:url(#SVGID_00000102518996739311761280000012495348817849824393_);enable-background:new    ;}
	.st6_team-presentation-7-77{opacity:0.63;fill:url(#SVGID_00000067220797612983382350000012127357523957126295_);enable-background:new    ;}
	.st7_team-presentation-7-77{opacity:0.63;fill:url(#SVGID_00000038391704292903356220000003151014660949852302_);enable-background:new    ;}
	.st8_team-presentation-7-77{fill:#181816;}
	.st9_team-presentation-7-77{fill:#68E1FD;}
	.st10_team-presentation-7-77{fill:#F7931E;}
	.st11_team-presentation-7-77{opacity:0.35;fill:#181816;enable-background:new    ;}
	.st12_team-presentation-7-77{fill:#FBC76F;}
	.st13_team-presentation-7-77{fill:#42210B;}
	.st14_team-presentation-7-77{opacity:0.4;fill:#FFFFFF;enable-background:new    ;}
	.st15_team-presentation-7-77{opacity:0.2;fill:#42210B;enable-background:new    ;}
	.st16_team-presentation-7-77{fill:#FFFFFF;}
	.st17_team-presentation-7-77{fill:#7F252B;}
	.st18_team-presentation-7-77{fill:#007F68;}
</style>
<g id="background_team-presentation-7-77">
	<path class="st0_team-presentation-7-77" d="M243.7,424L12,287.1c-7.3-4.1-13.7-10.9-6.5-15.4l232.5-134c3.5-2.2,8.8-3.6,12.3-1.5l243.2,141.1&#10;&#9;&#9;c7.4,4.3,8.7,16.2,1.3,20.5L274.2,423.8C264.8,429.3,253.2,429.3,243.7,424z"/>
	
		<linearGradient id="SVGID_1_-team-presentation-7-77" gradientUnits="userSpaceOnUse" x1="194.1081" y1="237.4467" x2="141.1681" y2="173.6267" gradientTransform="matrix(1 0 0 -1 0 502)">
		<stop offset="0" style="stop-color:#053855"/>
		<stop offset="1" style="stop-color:#053855;stop-opacity:0"/>
	</linearGradient>
	<path class="st1_team-presentation-7-77" d="M161.2,294l-32,17.8l25.3,16l25.3-15.2C177.4,310.9,163.8,295.6,161.2,294z"/>
	
		<linearGradient id="SVGID_00000084488014021558601980000003410825657775438745_-team-presentation-7-77" gradientUnits="userSpaceOnUse" x1="361.0812" y1="236.2693" x2="294.3513" y2="107.0394" gradientTransform="matrix(1 0 0 -1 0 502)">
		<stop offset="0" style="stop-color:#053855"/>
		<stop offset="1" style="stop-color:#053855;stop-opacity:0"/>
	</linearGradient>
	<path style="opacity:0.63;fill:url(#SVGID_00000084488014021558601980000003410825657775438745_);enable-background:new    ;" d="&#10;&#9;&#9;M308.8,352.3l-37.7,18.7l32.8,18.8l45.5-32.5C345.3,354.7,312.9,354.9,308.8,352.3z"/>
	
		<linearGradient id="SVGID_00000000200333511068280150000011518385142222163630_-team-presentation-7-77" gradientUnits="userSpaceOnUse" x1="298.1605" y1="272.0398" x2="250.2905" y2="172.9298" gradientTransform="matrix(1 0 0 -1 0 502)">
		<stop offset="0" style="stop-color:#053855"/>
		<stop offset="1" style="stop-color:#053855;stop-opacity:0"/>
	</linearGradient>
	<path style="opacity:0.63;fill:url(#SVGID_00000000200333511068280150000011518385142222163630_);enable-background:new    ;" d="&#10;&#9;&#9;M284.3,281.5l-51.9,28.8l20.8,14.4l39.6-28.1C288.8,294,288.4,284,284.3,281.5z"/>
	
		<linearGradient id="SVGID_00000062881829976111458590000013650379544082181272_-team-presentation-7-77" gradientUnits="userSpaceOnUse" x1="252.7212" y1="251.1603" x2="219.7812" y2="213.1503" gradientTransform="matrix(1 0 0 -1 0 502)">
		<stop offset="0" style="stop-color:#053855"/>
		<stop offset="1" style="stop-color:#053855;stop-opacity:0"/>
	</linearGradient>
	<path style="opacity:0.63;fill:url(#SVGID_00000062881829976111458590000013650379544082181272_);enable-background:new    ;" d="&#10;&#9;&#9;M241.2,266.4l-36.1,20.1l14.5,10l33.2-26.5C250,268.1,244.1,268.2,241.2,266.4z"/>
	
		<linearGradient id="SVGID_00000126317438540655815360000004370118446195034527_-team-presentation-7-77" gradientUnits="userSpaceOnUse" x1="217.1704" y1="212.2796" x2="163.1104" y2="154.8397" gradientTransform="matrix(1 0 0 -1 0 502)">
		<stop offset="0" style="stop-color:#053855"/>
		<stop offset="1" style="stop-color:#053855;stop-opacity:0"/>
	</linearGradient>
	<path style="opacity:0.63;fill:url(#SVGID_00000126317438540655815360000004370118446195034527_);enable-background:new    ;" d="&#10;&#9;&#9;M189.6,313.7l-51.9,28.9l26.2,20.5l32.4-19.7C192.2,340.8,193.7,316.3,189.6,313.7z"/>
	
		<linearGradient id="SVGID_00000142863174939334068790000010284456243591936133_-team-presentation-7-77" gradientUnits="userSpaceOnUse" x1="246.4525" y1="232.1016" x2="210.4125" y2="178.6016" gradientTransform="matrix(1 0 0 -1 0 502)">
		<stop offset="0" style="stop-color:#053855"/>
		<stop offset="1" style="stop-color:#053855;stop-opacity:0"/>
	</linearGradient>
	<path style="opacity:0.63;fill:url(#SVGID_00000142863174939334068790000010284456243591936133_);enable-background:new    ;" d="&#10;&#9;&#9;M248.6,303.7c-3.4-0.6-6.8-1.6-10.1-2.7c-4-1.4-8.3-3.5-10.7-7.1l-40,22.3l26.2,20.5l36.2-31.5C249.6,304.8,249,304.3,248.6,303.7z&#10;&#9;&#9;"/>
	
		<linearGradient id="SVGID_00000044896675797587963430000016089364451996303770_-team-presentation-7-77" gradientUnits="userSpaceOnUse" x1="487.4233" y1="293.8377" x2="408.0233" y2="176.4277" gradientTransform="matrix(1 0 0 -1 0 502)">
		<stop offset="0" style="stop-color:#053855"/>
		<stop offset="1" style="stop-color:#053855;stop-opacity:0"/>
	</linearGradient>
	<path style="opacity:0.63;fill:url(#SVGID_00000044896675797587963430000016089364451996303770_);enable-background:new    ;" d="&#10;&#9;&#9;M434,308.5c10.6-7.1,21.4-13.9,32.1-20.8l-15.2-11.1l-59,24.6c7.1,3.7,16.8,10.7,26.9,17.9C423.9,315.5,428.9,311.9,434,308.5z"/>
</g>
<g id="character_2_team-presentation-7-77">
	<path class="st8_team-presentation-7-77" d="M297.5,264L297.5,264c-1.6,0-3.7,1.6-5.2,2.3l-3.9,1.9c0,0-2.6,9.7-4.1,13.2s-6.8,11.3-5,14.2s6.6,5,11.5,2.3&#10;&#9;&#9;s4.8-11.7,6.6-15.2c1.5-2.9,0.8-9,0.8-10.4C298.3,269.6,298.1,266.8,297.5,264z"/>
	<path class="st8_team-presentation-7-77" d="M257.1,246.4L257.1,246.4c-1.6,0-3.8,1.6-5.2,2.4l-3.9,1.9c0,0-1.4,10.5-4.1,13.2s-13.1,8.4-11.3,11.2&#10;&#9;&#9;c2.5,3.8,7.4,4.9,11.3,2.6c4.9-2.7,8.1-8.2,11.6-9.6c3-1.2,1.7-9,1.9-11.7C257.6,251.9,257.8,250.9,257.1,246.4z"/>
	<path class="st9_team-presentation-7-77 targetColor" d="M250.1,147.7c0,0-6.7,35.7-6.1,55.2s0.9,43.5,2.4,54.1c0,0,13,1.8,17.4-2.1c0,0,1.3-68.6,1.4-68.2&#10;&#9;&#9;c2,9,11.3,55.2,12.3,58.3s5.8,27.4,5.8,27.4s8.8,2.9,18.5-3.1c0,0-1.6-35.1-4.6-44.9s-13.5-71.8-18.6-76.7" style="fill: rgb(104, 225, 253);"/>
	<path class="st9_team-presentation-7-77 targetColor" d="M250.1,147.7c0,0-6.7,35.7-6.1,55.2s0.9,43.5,2.4,54.1c0,0,13,1.8,17.4-2.1c0,0,1.3-68.6,1.4-68.2&#10;&#9;&#9;c2,9,11.3,55.2,12.3,58.3s5.8,27.4,5.8,27.4s8.8,2.9,18.5-3.1c0,0-1.6-35.1-4.6-44.9s-13.5-71.8-18.6-76.7" style="fill: rgb(104, 225, 253);"/>
	<path class="st10_team-presentation-7-77" d="M278.1,150.5c0,0,11.5-33.3,6.8-41s-23.2-13.6-32.1-12.9s-3.2,53.5-1.8,53.9S265.6,160,278.1,150.5z"/>
	<path class="st10_team-presentation-7-77" d="M281.9,106.1l-13.9-5.8c-2.5,12.2-5.1,24.4-7.9,36.6l19.4,3.4c0,0,11.6-6.4,13.4-16.5&#10;&#9;&#9;S282.5,106.6,281.9,106.1z"/>
	<path class="st10_team-presentation-7-77" d="M253.9,116.8c0,0-1.9-18.2-1.9-19.8c-5.4,1.5-10.5,4.1-14.9,7.6c-2.3,1.8-4.4,3.7-6.3,5.8&#10;&#9;&#9;c-1.3,1.2-2.4,2.7-3.2,4.3c-0.7,1.8-0.4,4-0.2,5.9c0.9,4.5,2.4,8.9,4.6,13c2.3,4.7,5.1,9.2,8.4,13.3c1,1.2,4.3,5.9,6.4,5.1&#10;&#9;&#9;c4.3-1.5,6.1-6.5,6.1-6.5s-2-3.9-4.1-8.7c-1.3-2.9-7-9.3-7.7-13.8c0.6-0.8,1.2-1.5,1.8-2.2C245.6,118.1,250.4,118.6,253.9,116.8z"/>
	<path class="st11_team-presentation-7-77" d="M255.5,98l2.8,14.3l4-4.6l3,5.8l8-10.9C273.3,102.6,260.9,96.8,255.5,98z"/>
	<path class="st12_team-presentation-7-77" d="M253.9,83.3c0,0,0,19.5,7.1,20.8c7.9,1.4,12.3-7.5,12.3-7.5s1-17.2-6.8-18.7S254.1,80.8,253.9,83.3z"/>
	<path class="st13_team-presentation-7-77" d="M269.6,75.4c0,0,7,0.8,9,6.3s-3.2,16.6-6.9,18.3l4.5-9.7l-0.3-6.6L269.6,75.4z"/>
	<path class="st13_team-presentation-7-77" d="M278.5,84.2c-0.6-3.9-3.1-5.8-6.5-7.8c-0.3-0.2-0.5-0.3-0.8-0.4c0.6-0.5,1.2-1.2,1.5-2c0.1-0.3,0-0.6-0.2-0.7&#10;&#9;&#9;c-0.1,0-0.2-0.1-0.2-0.1c-0.9,0.1-1.7,0.5-2.3,1.2c-0.4-0.8-0.9-1.5-1.6-2.1c-0.2-0.2-0.5-0.2-0.7,0c-0.1,0.1-0.1,0.1-0.1,0.2&#10;&#9;&#9;c-0.3,0.8-0.3,1.6,0.1,2.3c-3.5-0.7-7.2-0.2-10.3,1.6c-1.1,0.7-2.1,1.6-2.8,2.7c-1-0.1-1.9,0.1-2.8,0.5c-1.9,0.9-3,2.9-2.6,5&#10;&#9;&#9;c0.5,2.3,3,3.1,5.1,2.7c1.1-0.2,2.1-0.7,2.9-1.4c-0.6,1.1-1,2.4,1.1,2.9c3.6,0.8,5.3-1.3,5.5,0.5c0.2,1.5,2.2,2.3,3.6,2.3&#10;&#9;&#9;c0.1,0.2,0.4,0.8,0.7,1.6c0.7-0.2,1.5-0.3,2.2-0.1c0.2-0.2,0.6-0.2,0.8,0c0,0,0.1,0.1,0.1,0.1c1.2,2.1,1,4.4,0.5,6.9&#10;&#9;&#9;c1.9-1.7,3.5-3.7,4.7-5.9C277.9,91,279,87.5,278.5,84.2z"/>
	<polygon class="st13_team-presentation-7-77" points="259.4,111.1 261.5,115.2 264.4,111.8 262.3,107.7 &#9;"/>
	<path class="st13_team-presentation-7-77" d="M261.5,115.2c0,0,3,20.7,5.6,34.1l-3.8,7.2l-4.9-6.1C258.3,150.4,256.3,136.3,261.5,115.2z"/>
	<polygon class="st9_team-presentation-7-77 targetColor" points="261.9,150.5 259.1,120.4 238.4,120.8 241.3,150.5 &#9;" style="fill: rgb(104, 225, 253);"/>
	<path class="st12_team-presentation-7-77" d="M269,138.6l-9-6.7v2.5c0,0-8.1-3.6-8.6-2.1c-0.4,1.8,1,6.9,2.4,7.4s7.1,2.3,7.1,2.3l4.5,1.4L269,138.6z"/>
	<path class="st10_team-presentation-7-77" d="M293,120.4c0,0,5.9,22.7,1.8,27.3s-30.2-0.4-30.5-2.7s3.3-10,3.3-10l14.6,1.6"/>
	<path class="st12_team-presentation-7-77" d="M248.4,150.5c0,0,5.5-0.9,6.6,2.1c0.6,1.6-3.6,0-3.6,0l-3,8.9c-0.9-1.1-1.4-2.5-1.4-4c0-2,0.2-4.1,0.6-6.1&#10;&#9;&#9;L248.4,150.5z"/>
</g>
<g id="character_1_team-presentation-7-77">
	<path class="st12_team-presentation-7-77" d="M197.5,302.4c-0.4,1.2,0,12.1,0,12.1l-11.4-1l0.6-19.7L197.5,302.4z"/>
	<path class="st8_team-presentation-7-77" d="M186.1,310.9c0,0,6.2,3.3,12.2,0.8c0,0,0.4,8.7,1,10.5s2.7,13,1.4,15.8s-4.9,6.7-7.3,6.7s-8-6.2-8.2-9.5&#10;&#9;&#9;c0-4.5,0.2-9.1,0.7-13.6C186.1,319.8,186.1,310.9,186.1,310.9z"/>
	<path class="st12_team-presentation-7-77" d="M228.5,281.7c-0.3,1.2,0.9,12.1,0.9,12.1l-11.4-0.1l-1-19.6L228.5,281.7z"/>
	<path class="st8_team-presentation-7-77" d="M238.7,296.3c-4-1.7-7.7-3.6-10.3-7.3c-1.1,2.2-2.6,3.8-5.2,4.2c-1.2,0.2-2.4,0.2-3.6-0.1c-0.3,0-0.4,0-0.4,0&#10;&#9;&#9;v-0.1c-0.5-0.2-0.9-0.5-1.3-0.8c-0.7,3.5,0.1,9.3,1.1,10.2c1.2,1.1,7.9,2.4,7.9,2.4l-1.1-2.7l6.5,4c2.8,1.7,11,3.3,15.5,1.2&#10;&#9;&#9;c1-0.3,1.8-1,2.3-1.9C249.3,298.8,243.5,298.3,238.7,296.3z"/>
	<ellipse class="st10_team-presentation-7-77" cx="168" cy="304.7" rx="15.2" ry="9"/>
	<polyline class="st10_team-presentation-7-77" points="152.8,302.8 152.8,304.8 183.2,304.8 183.2,303.1 &#9;"/>
	<ellipse class="st10_team-presentation-7-77" cx="168" cy="303" rx="15.2" ry="9"/>
	<ellipse class="st14_team-presentation-7-77" cx="168" cy="303" rx="15.2" ry="9"/>
	<path class="st13_team-presentation-7-77" d="M168,246.6L168,246.6c1.2,0,2.1,0.9,2.1,2.1v51.6c0,1.2-0.9,2.1-2.1,2.1l0,0c-1.2,0-2.1-0.9-2.1-2.1v-51.6&#10;&#9;&#9;C165.9,247.5,166.8,246.6,168,246.6z"/>
	<ellipse class="st10_team-presentation-7-77" cx="168" cy="231.5" rx="28.4" ry="16.8"/>
	<polyline class="st10_team-presentation-7-77" points="139.6,227.9 139.6,231.7 196.3,231.7 196.3,228.6 &#9;"/>
	<ellipse class="st10_team-presentation-7-77" cx="168" cy="228.4" rx="28.4" ry="16.8"/>
	<ellipse class="st14_team-presentation-7-77" cx="168" cy="228.4" rx="28.4" ry="16.8"/>
	<path class="st8_team-presentation-7-77" d="M170.6,226.8c0,0,19.7,14.4,40.7,19l4.3,35.8c0,0,3,2.2,14,0c0,0,6.3-40.1-2.4-59.2c-5.7-12.4-49-14.5-49-14.5&#10;&#9;&#9;"/>
	<path class="st8_team-presentation-7-77" d="M150.6,233.5c0,0,12.6-8,18.8-11.1l17.4-10.2l-8.5-5.5l-28.3,4.7C151.1,214.5,142.9,222.8,150.6,233.5z"/>
	<path class="st12_team-presentation-7-77" d="M201.8,156.8c0,0,2.2-6.7,2-9.6s-1.8-7.1,0-8s4,5.2,4,5.2s5.4-11.4,7.1-10.7s1.7,2.9,1.7,2.9s1.8-2.9,2.4-1.7&#10;&#9;&#9;s0,3.6,0,3.6s1.6,0.3,1.8,1.3s-2.3,5.3-2.3,5.3c0.8,0.1,1.4,0.7,1.4,1.5c0.1,1.3-10.2,11.6-10.2,11.6"/>
	<path class="st9_team-presentation-7-77 targetColor" d="M174.6,155c0,0,9.1,7.5,12.6,13.3s15-15.2,15-15.2s8,2.6,10.6,3.7s-12.9,36.5-23.6,35.3s-10.3-3.3-10.3-3.3" style="fill: rgb(104, 225, 253);"/>
	<path class="st9_team-presentation-7-77 targetColor" d="M150.1,211.4c9.8,1.6,19.7,0.5,28.3-4.7c1.3-15.2,2.4-30.3,0.7-45.6c0-0.1,0-0.2,0-0.4c-1-2.3-2.5-4.2-4.5-5.7&#10;&#9;&#9;c-5-3.4-13.1-1.7-17.9,0.8c-1.2,0.6-2.2,1.4-3.2,2.2C148.1,175.4,150.3,193.5,150.1,211.4z" style="fill: rgb(104, 225, 253);"/>
	<path class="st12_team-presentation-7-77" d="M169,147.9l-8.9-1.9l-0.7,9.7c0,0,6.6,6.8,13.2,5.9l-1.9-8.1C170,151.7,169.4,149.8,169,147.9z"/>
	<path class="st15_team-presentation-7-77" d="M169.2,148.8c-3.3-1.7-9-2.8-9-2.8l-0.2,5.3c0,0,6.6,4.8,10.5,1.4C169.9,151.5,169.5,150.1,169.2,148.8z"/>
	<path class="st8_team-presentation-7-77" d="M175.3,137.3c0,0,5.9-3.6,4.7-6.8s-5.7-4.2-5.7-4.2s-0.7-4.2-4.1-4.7s-9.2,2.3-9.2,2.3s-5.1-0.5-6.9,2.4&#10;&#9;&#9;s-1.1,8-1.1,8s4.2,12.8,6.1,13.2s6.6-4.4,6.6-4.4"/>
	<path class="st12_team-presentation-7-77" d="M175.4,133.2c0,0,1.4,17-5.9,18.1s-10.3-8.8-10.3-8.8s-4.4-4.1-1.6-5s3.2,0.6,3.2,0.6s-2.7-6.1,0.1-6.1&#10;&#9;&#9;S171.9,136.7,175.4,133.2z"/>
	<path class="st16_team-presentation-7-77" d="M159.4,153c0,0,3.5,3.2,5.7,3.4l3.5,1.9l2.9,3v-4.2c-0.3-1.2-0.5-2.5-0.7-3.7c0.1,0,3.1,4.9,3.1,4.9l2.9,4.8&#10;&#9;&#9;l-4.2-0.4l-1.8,3.1c0,0-10.5-4.7-14.1-10L159.4,153z"/>
	<path class="st8_team-presentation-7-77" d="M216,136c-1.9,3.2-3.7,6.4-5.4,9.7c-0.2,0.4,0.4,0.8,0.6,0.4c1.7-3.3,3.5-6.6,5.4-9.7&#10;&#9;&#9;C216.9,136,216.3,135.6,216,136z"/>
	<path class="st8_team-presentation-7-77" d="M218.4,138.2l-4.9,9c-0.2,0.4,0.4,0.8,0.6,0.4l4.9-9C219.3,138.2,218.6,137.8,218.4,138.2z"/>
	<path class="st8_team-presentation-7-77" d="M218.1,145.1c-1,1.1-1.8,2.4-2.6,3.7c-0.1,0.2,0,0.4,0.2,0.5c0.2,0.1,0.4,0,0.5-0.1c0.7-1.2,1.5-2.4,2.4-3.5&#10;&#9;&#9;C218.9,145.3,218.4,144.7,218.1,145.1z"/>
	<path class="st8_team-presentation-7-77" d="M208.4,145.4c-0.4-0.2-0.8,0.4-0.4,0.6c2.5,1.3,3.5,4.2,3.4,6.9c0,0.2,0.2,0.4,0.4,0.4c0.2,0,0.4-0.2,0.4-0.4&#10;&#9;&#9;C212.3,150,211.1,146.9,208.4,145.4z"/>
	<path class="st9_team-presentation-7-77 targetColor" d="M153.4,158.1c-3.7,2.3-6.6,5.6-8.6,9.5c-3,6.2-11.4,34.4-1.6,38.4s27-5.1,27-5.1l-1-15l-14.8,2.1" style="fill: rgb(104, 225, 253);"/>
	<path class="st17_team-presentation-7-77" d="M172.5,174.1c-0.1,0.5-4.5,28-4.5,28l17.4-4.7l3.7-28.1L172.5,174.1z"/>
	<path class="st12_team-presentation-7-77" d="M165.6,187.6c0,0,3.1-7.9,4.7-7.4s1.1,4.5,1.1,4.5s7.9-3.9,10-2.1s-3.1,6.3-4.6,7.2s-10.5,4.4-10.5,4.4&#10;&#9;&#9;L165.6,187.6z"/>
	<path class="st8_team-presentation-7-77" d="M150.1,207.1c0,0,10.7-2.5,15.2-4.3c0,0,1.4-7.9,1.4-7.6s-0.2,10.1-0.8,10.8s-15.8,5.4-15.8,5.4L150.1,207.1z"/>
	<path class="st8_team-presentation-7-77" d="M150.6,233.5c0,0,15.2,15.2,29.3,21.7l-1.4,45.5c0,0,8.7,7.1,19.7,4.9c0,0,5.6-50.4,1.9-63.6&#10;&#9;&#9;s-27.6-24.3-27.6-24.3"/>
</g>
<g id="character_3_team-presentation-7-77">
	<polygon class="st16_team-presentation-7-77" points="265.6,189.6 288.6,169.2 304.1,208.6 282.8,229 &#9;"/>
	<path class="st12_team-presentation-7-77" d="M305.8,170.8c-1-0.9-1.5-2.5-2-3.7c-0.6-1.4-1.1-2.9-1.8-4.3c-0.4-0.8-0.8-2.5-1.7-2.7&#10;&#9;&#9;c-0.4-0.1-0.7,0.9-0.8,1.2c-0.2,0.7-0.2,1.4,0,2.1c0.3,0.9,0.5,1.8,0.6,2.8c0,0-6.5-5.8-8-6s-1.3,1.6-1.3,1.6s-1.8-1.2-2.7-0.5&#10;&#9;&#9;s0.4,2.7,0.4,2.7s-1.8,1.2-0.9,2.4s6.4,4.2,6.4,4.2s-3.8-0.9-4.7-0.4s-0.4,1.9,1.1,2.4s5.4,1.6,5.4,1.6s6.4,2.1,9,2.8&#10;&#9;&#9;s11.8,6.4,11.8,6.4l1.2-8.4C317.1,175.1,307,171.9,305.8,170.8z"/>
	<path class="st9_team-presentation-7-77 targetColor" d="M334.9,176.6l-27.9-8.9c0,0-6.1,7.8-4.1,12.8l12.2,6.6" style="fill: rgb(104, 225, 253);"/>
	<path class="st11_team-presentation-7-77" d="M334.9,176.6l-27.9-8.9c0,0-6.1,7.8-4.1,12.8l12.2,6.6"/>
	<path class="st13_team-presentation-7-77" d="M339.6,353.6l6.1-1.7l-1-7.4C344.7,344.5,338.1,345.6,339.6,353.6z"/>
	<path class="st17_team-presentation-7-77" d="M347.8,332.1c0,0,2.1,25,1.6,25.2s-6.4,0.8-6.4,0.4s-0.4-11.4-0.4-11.4s-2.9,4.8-3.1,7.2c0,0-7-4-8.3-7.1&#10;&#9;&#9;s3-16.5,4.6-17.2"/>
	<path class="st13_team-presentation-7-77" d="M324.6,366.6l6.9-7.3l-4.4-5.7C327,353.7,322.8,362.9,324.6,366.6z"/>
	<path class="st17_team-presentation-7-77" d="M334.8,337.8l3.2,30c0,0-5.2,1.8-6.1,1.6c-1.3-0.4-2.5-1-3.7-1.8l-1.1-10c0,0-3,3-2.4,9c0-0.4-4.7-2-5.3-2.3&#10;&#9;&#9;c-1.9-0.8-3.8-1.8-5.5-3c-1.8-1.2-8.6-6.9-5-9.1c3.1-1.9,13.1-1,13.1-1l0.1-12.4"/>
	<path class="st10_team-presentation-7-77" d="M346.8,230.5c-0.1-0.4,0.1-0.8,0.5-0.9c0.1,0,0.1,0,0.2,0c-1.1-3.4-2.2-6-3.4-7.4l-29-3.4&#10;&#9;&#9;c0,0-5.8,20.7-8.1,56.4c-1.7,27.7,11.9,68.9,11.9,68.9s14,3.6,20.8-3.4l-0.3-6c3.5,0,7-0.3,10.5-0.9&#10;&#9;&#9;C353.4,299.5,350.7,264.7,346.8,230.5z"/>
	<path class="st13_team-presentation-7-77" d="M340.5,339.1c-1.2-8.6-2.4-17.1-3.6-25.7c-1.2-8.2-2.9-16.6-3-24.9c0-8.1,2.8-15.7,4.2-23.6&#10;&#9;&#9;c1.3-7.7,1.6-15.4,1-23.2c-0.1-1.8-2.7-1.8-2.6,0c0.7,8.7,0.2,17.4-1.6,25.9c-1.6,7.6-3.9,14.8-3.5,22.7s1.9,16,3,23.8&#10;&#9;&#9;c1.2,8.6,2.4,17.1,3.6,25.7C338.3,341.7,340.8,340.9,340.5,339.1z"/>
	<path class="st12_team-presentation-7-77" d="M297.2,214.2c0.1-0.3,0.1-0.6,0-0.9h0.2c0.3,0,0.6,0,0.9-0.2l0.3,0.1c1.6,0.5,2.3-2,0.7-2.5&#10;&#9;&#9;c-1.3-0.4-2.6-0.8-3.8-1.1h-0.1c-2.6-1-5.3-1.8-8-2.5c-0.9-0.3-1.8-0.6-2.7-0.9h-0.1c-2.4-0.8-4.8-1.4-7.3-1.8&#10;&#9;&#9;c-1.4-0.2-3-0.2-3.8,1.2c-0.1,0.2-0.1,0.5,0,0.7c0.5,0.7,1.2,0.8,2,1l2.5,0.7l0,0c-1,0.2-1.9,0.5-2.9,0.9c-1,0.2-2,0.6-2.8,1.3&#10;&#9;&#9;c-0.4,0.4-0.5,1.1-0.2,1.6c0.1,0.2,0.2,0.3,0.4,0.4c-0.8,0.6-1.4,1.5-0.8,2.5c0.3,0.6,1,0.9,1.6,0.9c-0.7,0.5-1.1,1.3-0.9,2.1&#10;&#9;&#9;c0.2,0.8,1,1,1.8,1c-0.3,0.6-0.1,1.4,0.6,1.7c0.1,0.1,0.2,0.1,0.4,0.1c1.6,0.3,3.2,0,4.6-0.9c0.1-0.1,0.2-0.1,0.2-0.2&#10;&#9;&#9;c1.2-0.1,2.4-0.4,3.5-0.8c0.5-0.2,1-0.5,1.5-0.7c0.3-0.1,0.6-0.2,0.9-0.4c0.1-0.1,0.7-0.4,0.8-0.3l5.2,2c1.4,0.5,3.9,2.2,5.4,1.6&#10;&#9;&#9;s0.9-3.1-0.7-2.5c0.3-0.1-0.4-0.2-0.5-0.3l-1.4-0.6c1.3,0.5,2.7,0.8,4.1,0.8c0.7,0,1.3-0.6,1.3-1.4c0-0.3-0.1-0.6-0.4-0.9&#10;&#9;&#9;C298.9,215.5,298.1,214.8,297.2,214.2z"/>
	<path class="st9_team-presentation-7-77 targetColor" d="M334.9,176.6c0,0-16.1,0-21.7,10.1c-4.7,8.5-3.8,22.8-3.8,22.8l-18.6-1.5c0,0-5.3,2.2-4,8.9&#10;&#9;&#9;c0.7,3.6,19.2,5.3,29.3,7.9s28.6,3.2,31.5-2.9s2.5-30.9-0.9-38S334.9,176.6,334.9,176.6z" style="fill: rgb(104, 225, 253);"/>
	<path class="st12_team-presentation-7-77" d="M333.1,175.4c0,0-6.5,4.9-10.5,1.9s-3-15.9-3-15.9s2-3.8,9.6,1S333.1,175.4,333.1,175.4z"/>
	<path class="st17_team-presentation-7-77" d="M335.7,177.2c-0.1-0.2-0.2-0.3-0.2-0.3l-4,1.3l-0.1,0.2C332.9,177.9,334.3,177.5,335.7,177.2z"/>
	<path class="st17_team-presentation-7-77" d="M342.3,161.2c-0.5-3.1-2-5.9-4.2-8.2c-3.3-3.1-8.4-3-12.4-1.7c-4.3,1.2-7.5,4.9-8,9.3&#10;&#9;&#9;c-0.9,4.9,4.8,1.9,6.1,4.6c0.7,1.6,1,3.4,0.7,5.2c-0.4,2.9-2.1,5.7-1.9,8.7c0,1.5,0.8,2.8,2.1,3.6c3.5,0.5,7.3,0.1,10.5-0.2&#10;&#9;&#9;c2.7-0.2,8.2-0.4,9.2-3.8C345.5,174.8,342.3,161.2,342.3,161.2z"/>
</g>
<g id="plant_team-presentation-7-77">
	<path class="st13_team-presentation-7-77" d="M472,248.3c-0.1-0.4-0.2-0.7-0.5-1c-0.4-0.5-1-0.9-1.5-1.3c-7.5-5.1-17.9-6.5-25.8-1.5&#10;&#9;&#9;c-1.8,1.1-4.5,3.7-3.4,6.1c0.6,1.4,2.5,2.2,3.8,2.8c4.4,1.7,8.9,2.9,13.5,3.5c1.7,0.3,3.4,0.6,5.1,0.7c2.4,0.2,4.7-0.8,6.2-2.6&#10;&#9;&#9;C470.6,253.5,472.5,250.5,472,248.3z"/>
	<path class="st9_team-presentation-7-77 targetColor" d="M440.6,249.5c0,0,6.8,6.2,18.6,5.3s12.7-6.5,12.7-6.5s-3,39.1-4.7,39.8s-7.6,3.6-10.5,3.8s-12.1-3.5-12.4-4.5&#10;&#9;&#9;S440.6,249.5,440.6,249.5z" style="fill: rgb(104, 225, 253);"/>
	<path class="st18_team-presentation-7-77" d="M442.8,192.5c-0.4-0.7-1.5-0.1-1.1,0.6c8.1,16.3,9.7,34.6,11.1,52.4c0.1,0.8,1.4,0.8,1.3,0&#10;&#9;&#9;C452.6,227.5,450.9,209,442.8,192.5z"/>
	<path class="st18_team-presentation-7-77" d="M441.7,192.6c0,0,2.2,8.5-0.1,12.7s-4.2,5.1-1.5,10.4s10.2,6,10.7,10S447.3,199.8,441.7,192.6z"/>
	<path class="st18_team-presentation-7-77" d="M467.6,207.9c-6.2,13-9.7,27.2-10.2,41.6c0,1,1.5,1,1.6,0c0.5-14.1,3.9-28,10-40.8&#10;&#9;&#9;C469.4,207.8,468,207,467.6,207.9z"/>
	<path class="st18_team-presentation-7-77" d="M468.7,212c0-0.9-0.2-2.5-0.1-4c-0.3,0.2-0.6,0.4-0.9,0.6c-3.1,7.5-7.6,25-9,30.4c1.9-4,9.5-4.6,11.8-10.3&#10;&#9;&#9;c1-2.4,1-5.2,0.1-7.6C469.4,218.1,468.8,215.1,468.7,212z"/>
</g>
</svg>