<svg width="100%" height="100%" id="svg" viewBox="0 0 1440 590" xmlns="http://www.w3.org/2000/svg"
  class="transition duration-300 ease-in-out delay-150">
  <path
    d="M 0,600 L 0,337 C 87.38755980861242,348.3397129186603 174.77511961722485,359.6794258373206 273,358 C 371.22488038277515,356.3205741626794 480.2870813397129,341.622009569378 579,296 C 677.7129186602871,250.377990430622 766.0765550239236,173.83253588516746 870,131 C 973.9234449760764,88.16746411483254 1093.4066985645934,79.04784688995215 1191,69 C 1288.5933014354066,58.952153110047846 1364.2966507177034,47.97607655502392 1440,37 L 1440,600 L 0,600 Z"
    stroke="none" stroke-width="0" fill="#ff0080" fill-opacity="0.4"
    class="transition-all duration-300 ease-in-out delay-150 path-0"></path>
  <path
    d="M 0,600 L 0,487 C 104.53588516746413,506.2918660287081 209.07177033492826,525.5837320574162 296,517 C 382.92822966507174,508.4162679425837 452.2488038277512,471.9569377990431 543,428 C 633.7511961722488,384.0430622009569 745.9330143540669,332.5885167464115 851,307 C 956.0669856459331,281.4114832535885 1054.019138755981,281.688995215311 1151,266 C 1247.980861244019,250.311004784689 1343.9904306220096,218.6555023923445 1440,187 L 1440,600 L 0,600 Z"
    stroke="none" stroke-width="0" fill="#ff0080" fill-opacity="0.53"
    class="transition-all duration-300 ease-in-out delay-150 path-1"></path>
  <path
    d="M 0,600 L 0,637 C 89.11004784688996,648.7511961722488 178.2200956937799,660.5023923444976 266,633 C 353.7799043062201,605.4976076555024 440.22966507177034,538.7416267942583 541,525 C 641.7703349282297,511.25837320574163 756.8612440191388,550.5311004784688 858,539 C 959.1387559808612,527.4688995215312 1046.3253588516745,465.13397129186603 1141,423 C 1235.6746411483255,380.86602870813397 1337.8373205741627,358.933014354067 1440,337 L 1440,600 L 0,600 Z"
    stroke="none" stroke-width="0" fill="#ff0080" fill-opacity="1"
    class="transition-all duration-300 ease-in-out delay-150 path-2"></path>
</svg>
